<?xml version="1.0" encoding="utf-8"?>
<!-- Generator: Adobe Illustrator 24.0.2, SVG Export Plug-In . SVG Version: 6.00 Build 0)  -->
<svg version="1.1" id="Capa_1" xmlns="http://www.w3.org/2000/svg" xmlns:xlink="http://www.w3.org/1999/xlink" x="0px" y="0px"
	 viewBox="0 0 595.28 841.89" style="enable-background:new 0 0 595.28 841.89;" xml:space="preserve">
<style type="text/css">
	.st0{fill:#FDFEFD;}
	.st1{fill:#1DC78A;}
	.st2{fill:#FCFEFD;}
</style>
<g>
	<g>
		<path class="st0" d="M297.93,635.78c-71.3,0-142.6-0.04-213.9,0.1c-3.57,0.01-4.02-0.9-4.01-4.17c0.1-140.6,0.1-281.2-0.02-421.8
			c0-3.56,0.9-4.01,4.17-4.01c142.6,0.1,285.2,0.1,427.8-0.02c3.56,0,4.02,0.9,4.01,4.17c-0.1,140.6-0.1,281.2,0.02,421.8
			c0,3.56-0.9,4.02-4.17,4.01C440.53,635.76,369.23,635.78,297.93,635.78z M510.03,420.15c0.27-116.53-94.5-211.73-211.15-212.12
			c-116.86-0.39-212.2,94.2-213.03,210.33c-0.84,116.36,91.89,213.78,211.75,214.03C416.75,632.63,510.39,536.48,510.03,420.15z"/>
		<path class="st1" d="M510.03,420.15c0.36,116.33-93.29,212.48-212.43,212.24c-119.86-0.25-212.59-97.67-211.75-214.03
			c0.83-116.12,96.18-210.72,213.03-210.33C415.54,208.42,510.3,303.63,510.03,420.15z M244.04,258.98
			c-0.32-0.04-0.68-0.2-0.96-0.11c-32.99,11.1-59.78,30.81-80.89,58.37c-0.36,0.47-1.16,0.84-0.62,1.59
			c0.49,0.68,1.12,1.13,2.11,0.93c7.18-1.41,14.53-1.24,21.74-2.24c3.57-0.5,4.2,0.9,4.74,3.76c4.04,21.39,8.12,42.77,12.41,64.11
			c0.61,3.04,0.01,4.88-2.22,6.94c-15.91,14.68-31.79,29.4-47.44,44.36c-2.89,2.76-4.57,2.51-7.23,0.09
			c-5.83-5.31-11.89-10.38-18.44-16.06c1.01,36.85,10.99,69.65,32.57,99.36c0.52-1.9,0.9-3.14,1.19-4.41
			c1.6-6.97,3.23-13.94,4.72-20.94c0.4-1.87,0.84-2.98,3.17-2.68c22.59,2.91,45.2,5.78,67.81,8.5c2.45,0.29,3.38,1.52,4.27,3.43
			c9.24,19.9,18.44,39.83,27.89,59.64c1.65,3.45,0.77,4.82-2.26,6.5c-6.85,3.81-13.49,7.99-20.97,12.47
			c35.34,10.89,69.6,10.83,104.66,0.04c-7.24-4.33-13.69-8.43-20.38-12.08c-3.59-1.96-4.46-3.57-2.49-7.63
			c9-18.53,17.77-37.19,26.17-56c2.12-4.74,4.82-6.54,9.85-7.08c20.5-2.19,40.98-4.62,61.39-7.47c4.46-0.62,5.33,0.77,6.04,4.46
			c1.45,7.56,3.32,15.04,5.21,23.41c21.71-30.04,31.73-62.76,32.61-99.45c-6.89,5.91-13.18,11.27-19.42,16.7
			c-1.63,1.42-2.76,2.34-4.9,0.31c-16.34-15.44-32.81-30.74-49.27-46.06c-1.4-1.31-2.44-2.52-2.01-4.7
			c4.48-22.34,8.9-44.69,13.28-67.05c0.43-2.21,1.28-2.87,3.69-2.61c8.36,0.91,16.76,1.48,25.5,2.21
			c-13.9-19.54-31.4-34.63-51.63-46.67c-10.02-5.96-20.46-11.06-31.77-14.15c-0.17-0.16-0.33-0.33-0.52-0.46
			c-0.03-0.02-0.2,0.15-0.3,0.23c0.19,0.16,0.37,0.31,0.56,0.47c2.16,7.53,5.73,14.5,8.8,21.65c1.26,2.94,1.16,4.55-1.98,6.26
			c-19.27,10.48-38.43,21.16-57.56,31.88c-2.35,1.32-4.17,1.23-6.44-0.03c-19.14-10.7-38.3-21.36-57.54-31.88
			c-2.78-1.52-3.31-2.85-2.05-5.81c3.11-7.31,6.84-14.38,8.88-22.12c0.19-0.14,0.39-0.27,0.58-0.41c-0.12-0.06-0.23-0.13-0.35-0.19
			C244.18,258.57,244.11,258.77,244.04,258.98z"/>
		<path class="st2" d="M244.02,258.96c-2.03,7.74-5.77,14.81-8.88,22.12c-1.26,2.96-0.72,4.29,2.05,5.81
			c19.24,10.52,38.4,21.19,57.54,31.88c2.27,1.27,4.1,1.35,6.44,0.03c19.13-10.73,38.3-21.4,57.56-31.88
			c3.14-1.71,3.24-3.32,1.98-6.26c-3.07-7.16-6.64-14.12-8.8-21.65l0.27-0.24c11.31,3.1,21.75,8.19,31.77,14.15
			c20.23,12.04,37.73,27.13,51.63,46.67c-8.74-0.73-17.14-1.3-25.5-2.21c-2.41-0.26-3.26,0.4-3.69,2.61
			c-4.38,22.36-8.81,44.71-13.28,67.05c-0.44,2.17,0.6,3.39,2.01,4.7c16.46,15.32,32.93,30.62,49.27,46.06
			c2.14,2.02,3.27,1.11,4.9-0.31c6.23-5.43,12.53-10.78,19.42-16.7c-0.87,36.69-10.9,69.42-32.61,99.45
			c-1.89-8.38-3.76-15.86-5.21-23.41c-0.71-3.7-1.58-5.09-6.04-4.46c-20.41,2.85-40.89,5.28-61.39,7.47
			c-5.03,0.54-7.74,2.34-9.85,7.08c-8.41,18.81-17.17,37.47-26.17,56c-1.97,4.06-1.1,5.67,2.49,7.63
			c6.7,3.65,13.14,7.75,20.38,12.08c-35.06,10.8-69.32,10.85-104.66-0.04c7.47-4.48,14.12-8.67,20.97-12.47
			c3.02-1.68,3.9-3.05,2.26-6.5c-9.45-19.81-18.65-39.73-27.89-59.64c-0.89-1.91-1.82-3.14-4.27-3.43
			c-22.62-2.72-45.22-5.58-67.81-8.5c-2.34-0.3-2.77,0.81-3.17,2.68c-1.5,7-3.12,13.96-4.72,20.94c-0.29,1.26-0.67,2.51-1.19,4.41
			c-21.58-29.71-31.56-62.52-32.57-99.36c6.55,5.68,12.6,10.75,18.44,16.06c2.66,2.42,4.34,2.67,7.23-0.09
			c15.65-14.96,31.53-29.67,47.44-44.36c2.23-2.05,2.83-3.9,2.22-6.94c-4.29-21.34-8.36-42.72-12.41-64.11
			c-0.54-2.86-1.17-4.26-4.74-3.76c-7.21,1.01-14.56,0.83-21.74,2.24c-0.99,0.19-1.62-0.25-2.11-0.93
			c-0.54-0.75,0.26-1.12,0.62-1.59c21.11-27.56,47.9-47.27,80.89-58.37c0.28-0.09,0.64,0.07,0.96,0.11
			C244.04,258.98,244.02,258.96,244.02,258.96z M297.99,479.83c12.49,0,24.98-0.1,37.47,0.07c3,0.04,4.32-0.89,5.25-3.78
			c7.62-23.63,15.4-47.21,23.19-70.79c0.89-2.68,0.55-4.32-1.99-6.13c-20.45-14.58-40.78-29.31-61.08-44.09
			c-2.12-1.55-3.61-1.51-5.72,0.03c-20.29,14.77-40.61,29.5-61.06,44.07c-2.56,1.83-2.84,3.5-1.96,6.15
			c7.79,23.58,15.58,47.15,23.19,70.79c0.94,2.92,2.26,3.8,5.24,3.76C273.01,479.74,285.5,479.83,297.99,479.83z"/>
		<path class="st2" d="M244.04,258.98c0.07-0.21,0.14-0.41,0.22-0.62c0.12,0.06,0.23,0.13,0.35,0.19c-0.19,0.14-0.39,0.27-0.58,0.41
			C244.02,258.96,244.04,258.98,244.04,258.98z"/>
		<path class="st2" d="M351.92,259.02c-0.19-0.16-0.37-0.31-0.56-0.47c0.1-0.08,0.27-0.25,0.3-0.23c0.19,0.13,0.35,0.3,0.52,0.46
			C352.19,258.77,351.92,259.02,351.92,259.02z"/>
		<path class="st1" d="M297.99,479.83c-12.49,0-24.98-0.09-37.47,0.07c-2.98,0.04-4.3-0.84-5.24-3.76
			c-7.61-23.64-15.4-47.21-23.19-70.79c-0.88-2.65-0.6-4.32,1.96-6.15c20.44-14.56,40.77-29.29,61.06-44.07
			c2.11-1.54,3.6-1.57,5.72-0.03c20.3,14.78,40.63,29.52,61.08,44.09c2.54,1.81,2.88,3.45,1.99,6.13
			c-7.8,23.58-15.57,47.16-23.19,70.79c-0.93,2.89-2.26,3.82-5.25,3.78C322.97,479.73,310.48,479.83,297.99,479.83z"/>
	</g>
</g>
</svg>
