<svg height="512pt" viewBox="-25 0 512 512.001" width="512pt" xmlns="http://www.w3.org/2000/svg"><path d="m449.761719 348.554688c-3.445313-32.902344-31.183594-57.890626-64.269531-57.890626l-83.246094 5.113282c-9.515625 0-17.644532-6.871094-19.226563-16.253906l-7.882812-46.660157h-87.429688l-7.882812 46.660157c-1.585938 9.382812-9.710938 16.253906-19.230469 16.253906l-83.246094-5.113282c-33.082031 0-60.820312 24.988282-64.265625 57.890626l-12.90625 128.359374c-1.964843 18.757813 12.746094 35.085938 31.605469 35.085938h399.28125c18.855469 0 33.566406-16.328125 31.601562-35.085938zm0 0" fill="#ffe7cf"/><path d="m462.664062 476.914062-12.902343-128.359374c-3.445313-32.902344-31.183594-57.890626-64.265625-57.890626l-83.25 5.113282c-9.515625 0-17.640625-6.871094-19.226563-16.253906l-7.882812-46.660157h-54.457031l10.328124 91.542969c1.582032 9.382812 9.710938 16.25 19.226563 16.25l83.25-5.109375c33.082031 0 60.820313 24.984375 64.265625 57.886719l11.917969 118.566406h21.394531c18.855469 0 33.566406-16.328125 31.601562-35.085938zm0 0" fill="#efd5bd"/><path d="m449.761719 348.554688c-3.445313-32.902344-31.1875-57.890626-64.269531-57.890626l-83.246094 5.113282c-4.203125 0-8.136719-1.339844-11.351563-3.644532l-35.523437 46.425782c-13.28125 17.363281-39.429688 17.363281-52.714844 0l-34.046875-44.503906c-2.457031 1.109374-5.171875 1.722656-8.015625 1.722656l-83.246094-5.113282c-33.085937 0-60.824218 24.988282-64.269531 57.890626l-10.078125 100.269531h83.519531l-6.425781 63.175781h302.652344l-6.425782-63.175781h83.519532zm0 0" fill="#81b8fd"/><path d="m449.761719 348.554688c-3.445313-32.902344-31.1875-57.890626-64.269531-57.890626l-83.246094 5.113282c-4.203125 0-8.136719-1.339844-11.351563-3.644532l-35.523437 46.425782c-.5.652344-1.023438 1.273437-1.558594 1.878906l79.667969-4.894531c33.085937 0 60.824219 24.988281 64.269531 57.890625l5.566406 55.386718h56.523438zm0 0" fill="#62a6fd"/><path d="m333.09375 123.890625h-6.488281v-25.835937c0-25.722657-10.558594-50.644532-30.050781-67.425782-15.28125-13.160156-36.761719-24.644531-65.132813-24.960937-28.375.316406-49.855469 11.800781-65.136719 24.960937-19.488281 16.78125-30.050781 41.703125-30.050781 67.425782v25.835937h-6.488281c-9.515625 0-17.226563 7.714844-17.226563 17.226563v19.089843c0 9.515625 7.710938 17.226563 17.226563 17.226563h6.515625c.535156 25.003906 11.042969 49.070312 30.023437 65.410156 15.28125 13.160156 36.761719 24.644531 65.132813 24.960938 28.375-.316407 49.855469-11.800782 65.136719-24.960938 18.980468-16.339844 29.484374-40.40625 30.023437-65.410156h6.515625c9.511719 0 17.226562-7.710938 17.226562-17.226563v-19.089843c0-9.515626-7.710937-17.226563-17.226562-17.226563zm0 0" fill="#ffe7cf"/><path d="m333.09375 123.890625h-6.488281v-25.835937c0-25.722657-10.558594-50.644532-30.050781-67.425782-15.28125-13.160156-36.761719-24.644531-65.132813-24.960937-9.449219.105469-18.128906 1.457031-26.074219 3.6875 15.914063 4.46875 28.867188 12.496093 39.0625 21.273437 19.488282 16.78125 30.046875 41.703125 30.046875 67.425782l-.023437 79.378906c-.539063 25.003906-11.042969 49.070312-30.023438 65.410156-10.195312 8.777344-23.148437 16.804688-39.0625 21.273438 7.945313 2.234374 16.625 3.582031 26.074219 3.6875 28.371094-.316407 49.851563-11.800782 65.132813-24.960938 18.980468-16.339844 29.488281-40.40625 30.023437-65.410156h6.515625c9.515625 0 17.226562-7.710938 17.226562-17.226563v-19.089843c0-9.515626-7.710937-17.226563-17.226562-17.226563zm0 0" fill="#efd5bd"/><path d="m265.59375 0h-68.34375c-41.667969 0-75.445312 33.777344-75.445312 75.445312v50.382813s14.558593-.328125 23.914062 8.933594c1.949219 1.925781 5.261719.515625 5.261719-2.222657v-49c0-12.90625 10.460937-23.371093 23.371093-23.371093h114.140626c12.90625 0 23.371093 10.464843 23.371093 23.371093v49c0 2.738282 3.308594 4.148438 5.257813 2.222657 9.359375-9.261719 23.917968-8.933594 23.917968-8.933594v-50.382813c0-41.667968-33.777343-75.445312-75.445312-75.445312zm0 0" fill="#ff901d"/><path d="m205.523438 512h18.378906c.160156-1.785156.242187-3.65625.242187-5.609375v-3.121094c0-27.035156-15.945312-35.351562-35.355469-35.351562-9.707031 0-18.371093 2.597656-24.261718 9.878906v-21.835937c0-15.25 7.796875-22.359376 21.140625-22.359376 11.09375 0 20.28125 5.894532 20.28125 15.425782 0 5.546875 4.503906 6.933594 9.53125 6.933594 5.714843 0 8.664062-1.90625 8.664062-7.800782 0-14.730468-12.132812-30.847656-38.125-30.847656-22.359375 0-39.6875 10.570312-39.6875 38.648438v50.429687c0 1.953125.082031 3.824219.242188 5.609375h18.207031c-.167969-1.429688-.253906-2.953125-.253906-4.570312v-4.503907c0-14.730469 8.144531-20.277343 20.625-20.277343 12.996094 0 20.621094 6.066406 20.621094 21.835937v2.945313c0 1.617187-.085938 3.140624-.25 4.570312zm0 0" fill="#fff"/><path d="m299.449219 512h18.5625c.039062-.867188.0625-1.757812.0625-2.664062v-2.078126c0-17.851562-7.972657-28.074218-19.929688-32.410156 9.707031-3.636718 16.289063-12.304687 16.289063-27.035156 0-22.183594-14.902344-30.5-35.179688-30.5s-35.183594 8.316406-35.183594 30.5c0 14.730469 6.585938 23.398438 16.121094 27.035156-11.960937 4.335938-19.933594 14.558594-19.933594 32.410156v2.078126c0 .90625.023438 1.796874.066407 2.664062h18.566406c-.171875-1.429688-.261719-2.953125-.261719-4.570312v-3.117188c0-14.90625 7.800782-21.664062 20.625-21.664062 12.824219 0 20.449219 6.757812 20.449219 21.664062v3.117188c0 1.613281-.085937 3.136718-.253906 4.570312zm-20.195313-44.605469c-10.921875 0-17.332031-5.023437-17.332031-17.5 0-12.304687 6.410156-17.332031 17.332031-17.332031 10.917969 0 17.328125 5.027344 17.328125 17.332031 0 12.476563-6.410156 17.5-17.328125 17.5zm0 0" fill="#fff"/><path d="m229.015625 379.1875c19.085937 0 36.683594-8.695312 48.28125-23.851562l48.3125-60.992188-23.363281 1.433594c-4.269532 0-8.257813-1.378906-11.5-3.75l-35.375 46.53125c-13.28125 17.363281-39.429688 17.363281-52.714844 0l-34.046875-44.5c-2.457031 1.105468-5.171875 1.71875-8.015625 1.71875l-24.195312-1.488282 44.332031 61.046876c11.597656 15.15625 29.199219 23.851562 48.285156 23.851562zm0 0" fill="#fcb038"/><path d="m302.246094 295.777344c-4.253906 0-8.222656-1.378906-11.460938-3.734375-.011718-.007813-.027344-.007813-.039062-.019531l-35.375 46.535156c-.5.652344-1.023438 1.273437-1.558594 1.878906l37.089844-2.277344 34.707031-43.816406zm0 0" fill="#ff901d"/><path d="m349.289062 0h-152.039062c-41.667969 0-75.445312 33.777344-75.445312 75.445312v50.382813s14.558593-.328125 23.914062 8.933594c1.949219 1.925781 5.261719.515625 5.261719-2.222657v-49c0-12.902343 10.453125-23.359374 23.351562-23.371093h125.726563c30.210937 0 54.699218-24.488281 54.699218-54.699219 0-3.019531-2.449218-5.46875-5.46875-5.46875zm0 0" fill="#fcb038"/></svg>