<svg height="512pt" viewBox="0 0 512 512" width="512pt" xmlns="http://www.w3.org/2000/svg"><path d="m360 165v120c0 23.898438-8.191406 48.199219-22.199219 66.5-7.03125-2.898438-14.730469-4.5-22.800781-4.5h-90v-36.589844c.640625-.550781 60-22.128906 60-85.410156v-60c-34.410156 0-67.210938-14.808594-90-40.621094-22.789062 25.8125-55.589844 40.621094-90 40.621094v60c0 64.789062 58.519531 84.160156 60 85.410156v36.589844h-90c-8.070312 0-15.769531 1.601562-22.800781 4.5-14.007813-18.300781-22.199219-42.601562-22.199219-66.5v-120c0-90.980469 74.019531-165 165-165s165 74.019531 165 165zm0 0" fill="#ffda2d"/><path d="m360 165v120c0 23.898438-8.191406 48.199219-22.199219 66.5-7.03125-2.898438-14.730469-4.5-22.800781-4.5h-90v-36.589844c.640625-.550781 60-22.128906 60-85.410156v-60c-34.410156 0-67.210938-14.808594-90-40.621094v-124.378906c90.980469 0 165 74.019531 165 165zm0 0" fill="#fdbf00"/><g fill="#4bb9ec"><path d="m380.285156 370.652344c-.007812.148437-.015625.3125-.023437.507812.007812-.167968.015625-.34375.023437-.507812zm0 0"/><path d="m380.3125 370.097656c0-.023437 0-.046875.003906-.070312-.003906.023437-.003906.046875-.003906.070312zm0 0"/><path d="m380.320312 369.90625c.003907-.085938.003907-.097656 0 0zm0 0"/><path d="m380.300781 370.296875c0-.007813 0-.011719.003907-.015625 0 .003906-.003907.007812-.003907.015625zm0 0"/><path d="m380.304688 370.28125c0-.070312.003906-.128906.007812-.183594-.003906.054688-.007812.117188-.007812.183594zm0 0"/><path d="m380.316406 370.027344c0-.050782.003906-.09375.003906-.121094 0 .03125-.003906.074219-.003906.121094zm0 0"/><path d="m380.261719 371.160156c0 .027344-.003907.058594-.003907.089844 0-.03125.003907-.0625.003907-.089844zm0 0"/></g><path d="m380.308594 370.109375c0 .101563 26.691406 141.789063 26.691406 141.890625h-317l-90-75v-30c0-41.398438 33.601562-75 75-75h240c26.980469 0 52.011719 14.601562 65.308594 38.109375zm0 0" fill="#ff637b"/><path d="m380.242188 371.511719c0 .027343 0 .054687-.003907.082031.003907-.027344.003907-.054688.003907-.082031zm0 0" fill="#4bb9ec"/><path d="m380.257812 371.25c0 .011719 0 .023438-.003906.035156.003906-.011718.003906-.023437.003906-.035156zm0 0" fill="#4bb9ec"/><path d="m380.308594 370.109375c0 .101563 26.691406 141.789063 26.691406 141.890625h-212v-180h120c26.980469 0 52.011719 14.601562 65.308594 38.109375zm0 0" fill="#e63950"/><path d="m0 437h90v75h-90zm0 0" fill="#ffbfab"/><path d="m300 150v75c0 40.789062-23.710938 77.671875-60 94.890625v27.109375c0 24.808594-20.191406 45-45 45s-45-20.191406-45-45v-27.109375c-36.289062-17.21875-60-54.101563-60-94.890625v-75h15c30.109375 0 58.808594-12.960938 78.75-35.550781l11.25-12.738281 11.25 12.738281c19.941406 22.589843 48.640625 35.550781 78.75 35.550781zm0 0" fill="#ffbfab"/><path d="m300 150v75c0 40.789062-23.710938 77.671875-60 94.890625v27.109375c0 24.808594-20.191406 45-45 45v-290.289062l11.25 12.738281c19.941406 22.589843 48.640625 35.550781 78.75 35.550781zm0 0" fill="#ffa78f"/><path d="m240 225c0 24.808594-20.191406 45-45 45s-45-20.191406-45-45h30c0 8.269531 6.730469 15 15 15s15-6.730469 15-15zm0 0" fill="#ffa78f"/><path d="m240 225c0 24.808594-20.191406 45-45 45v-30c8.269531 0 15-6.730469 15-15zm0 0" fill="#f89580"/><path d="m407 351.492188v-49.492188c-45.351562 0-84.074219 28.902344-98.730469 69.253906l45.941407 18.648438zm0 0" fill="#e7e7f2"/><path d="m459.792969 389.902344 45.660156-19.402344c-14.863281-39.957031-53.386719-68.5-98.453125-68.5v49.492188zm0 0" fill="#cecee6"/><path d="m354.207031 389.902344-45.9375-18.648438c-4.054687 11.164063-6.269531 23.199219-6.269531 35.746094 0 35.117188 17.332031 66.257812 43.886719 85.328125l28.421875-40.328125zm0 0" fill="#cecee6"/><path d="m468.121094 492.328125c-17.230469 12.371094-38.339844 19.671875-61.121094 19.671875s-43.890625-7.300781-61.121094-19.671875l28.429688-40.328125h65.382812zm0 0" fill="#e7e7f2"/><path d="m468.121094 492.328125c-17.230469 12.371094-38.339844 19.671875-61.121094 19.671875v-60h32.691406zm0 0" fill="#cecee6"/><path d="m505.453125 370.5-45.660156 19.402344-20.101563 62.097656 28.425782 40.328125c26.554687-19.074219 43.882812-50.214844 43.882812-85.328125 0-12.828125-2.316406-25.125-6.546875-36.5zm0 0" fill="#adadcc"/><path d="m459.789062 389.898438-20.097656 62.101562h-65.382812l-20.097656-62.101562 52.789062-38.410157zm0 0" fill="#f2f2f2"/><path d="m459.789062 389.898438-20.097656 62.101562h-32.691406v-100.511719zm0 0" fill="#e7e7f2"/></svg>